<svg width="21" height="21" viewBox="0 0 21 21" fill="none" xmlns="http://www.w3.org/2000/svg">
<path d="M10.2917 18.9646C9.69583 18.9646 9.18576 18.7514 8.76146 18.3251C8.33715 17.8987 8.125 17.3875 8.125 16.7917C8.125 16.1958 8.33715 15.6858 8.76146 15.2615C9.18576 14.8372 9.69583 14.625 10.2917 14.625L10.9417 14.0021C11.0861 13.8576 11.2531 13.7448 11.4427 13.6635C11.6323 13.5823 11.8264 13.5417 12.025 13.5417C12.4403 13.5417 12.7969 13.6951 13.0948 14.0021C13.3927 14.309 13.5417 14.6701 13.5417 15.0854V15.5458C13.5417 15.9069 13.659 16.2049 13.8938 16.4396C14.1285 16.6743 14.4264 16.7917 14.7875 16.7917C15.0583 16.7917 15.3021 16.7104 15.5188 16.5479C15.7354 16.3854 15.8889 16.1778 15.9792 15.925L16.3042 15.0312C16.4667 14.5979 16.725 14.2413 17.0793 13.9615C17.4334 13.6816 17.8451 13.5417 18.3146 13.5417C18.5132 13.0361 18.6712 12.5125 18.7885 11.9708C18.9059 11.4292 18.9646 10.8694 18.9646 10.2917C18.9646 8.68472 18.5663 7.22114 17.7699 5.90092C16.9733 4.58087 15.925 3.54169 14.625 2.78335V3.79167C14.625 4.3875 14.4128 4.89757 13.9885 5.32188C13.5642 5.74618 13.0542 5.95833 12.4583 5.95833H11.375V8.125C11.375 8.43194 11.2712 8.68924 11.0635 8.89688C10.8559 9.10451 10.5986 9.20833 10.2917 9.20833H9.20833V11.05C9.20833 11.4472 9.07292 11.7812 8.80208 12.0521C8.53125 12.3229 8.19722 12.4583 7.8 12.4583C7.54722 12.4583 7.31701 12.4042 7.10938 12.2958C6.90174 12.1875 6.73472 12.034 6.60833 11.8354L4.875 9.20833H3.79167V10.2917C3.79167 10.8514 3.60533 11.3299 3.23267 11.7271C2.86 12.1243 2.41231 12.359 1.8896 12.4313C2.35905 14.309 3.37115 15.8674 4.92592 17.1064C6.48086 18.3452 8.26944 18.9646 10.2917 18.9646ZM12.4583 12.4583C12.1514 12.4583 11.8941 12.3545 11.6865 12.1469C11.4788 11.9392 11.375 11.6819 11.375 11.375C11.375 11.0681 11.4788 10.8108 11.6865 10.6031C11.8941 10.3955 12.1514 10.2917 12.4583 10.2917H13.5417C13.8486 10.2917 14.1059 10.3955 14.3135 10.6031C14.5212 10.8108 14.625 11.0681 14.625 11.375C14.625 11.6819 14.5212 11.9392 14.3135 12.1469C14.1059 12.3545 13.8486 12.4583 13.5417 12.4583H12.4583ZM14.9771 9.20833C14.616 9.20833 14.3316 9.0684 14.124 8.78854C13.9163 8.50868 13.8667 8.19722 13.975 7.85417L14.3813 6.6625C14.4535 6.44583 14.5799 6.27431 14.7604 6.14792C14.941 6.02153 15.1396 5.95833 15.3562 5.95833C15.7174 5.95833 16.0017 6.09826 16.2094 6.37813C16.417 6.65799 16.4667 6.96944 16.3583 7.3125L15.9521 8.50417C15.8799 8.72083 15.7535 8.89236 15.5729 9.01875C15.3924 9.14514 15.1938 9.20833 14.9771 9.20833ZM10.2936 20.5833C8.87006 20.5833 7.53206 20.3132 6.27954 19.773C5.02703 19.2328 3.93756 18.4996 3.01112 17.5736C2.08469 16.6475 1.35119 15.5585 0.810604 14.3065C0.270201 13.0545 0 11.7169 0 10.2936C0 8.87006 0.270111 7.53206 0.810333 6.27954C1.35056 5.02703 2.0837 3.93756 3.00977 3.01112C3.93584 2.08469 5.02486 1.35119 6.27683 0.810604C7.52881 0.270201 8.86645 0 10.2898 0C11.7133 0 13.0513 0.270111 14.3038 0.810333C15.5563 1.35056 16.6458 2.0837 17.5722 3.00977C18.4986 3.93584 19.2321 5.02486 19.7727 6.27683C20.3131 7.52881 20.5833 8.86645 20.5833 10.2898C20.5833 11.7133 20.3132 13.0513 19.773 14.3038C19.2328 15.5563 18.4996 16.6458 17.5736 17.5722C16.6475 18.4986 15.5585 19.2321 14.3065 19.7727C13.0545 20.3131 11.7169 20.5833 10.2936 20.5833Z" fill="black" fill-opacity="0.4"/>
</svg>
