<svg width="214" height="214" viewBox="0 0 214 214" fill="none" xmlns="http://www.w3.org/2000/svg">
<path d="M87.624 153.183L88.6162 152.983V158.108L89.5225 157.925V152.8L90.5147 152.6V151.746L87.624 152.329V153.183ZM93.292 157.165V154.559L94.3698 154.342V156.947L95.2762 156.764V150.785L94.3698 150.968V153.488L93.292 153.705V151.185L92.3856 151.368V157.348L93.292 157.165ZM97.4382 156.328L100.012 155.809V154.954L98.3446 155.291V153.54L99.6701 153.272V152.418L98.3446 152.686V151.02L100.012 150.684V149.83L97.4382 150.349V156.328ZM106.484 150.386V149.882C106.484 149.02 105.903 148.556 105.03 148.732C104.158 148.908 103.577 149.606 103.577 150.469V153.732C103.577 154.594 104.158 155.058 105.03 154.882C105.903 154.706 106.484 154.008 106.484 153.145V151.232L105.03 151.525V152.379L105.578 152.269V153.328C105.578 153.704 105.364 153.961 105.03 154.028C104.697 154.095 104.483 153.925 104.483 153.549V150.286C104.483 149.91 104.697 149.654 105.03 149.586C105.364 149.519 105.578 149.689 105.578 150.065V150.569L106.484 150.386H106.484ZM108.535 154.09L111.058 153.58V152.726L109.442 153.052V147.927L108.535 148.11V154.09ZM114.306 153.01C115.179 152.834 115.76 152.136 115.76 151.273V148.01C115.76 147.148 115.179 146.684 114.306 146.86C113.434 147.036 112.853 147.735 112.853 148.597V151.86C112.853 152.722 113.434 153.186 114.306 153.01V153.01ZM114.306 152.156C113.973 152.224 113.759 152.053 113.759 151.677V148.414C113.759 148.038 113.973 147.782 114.306 147.715C114.64 147.647 114.854 147.818 114.854 148.194V151.456C114.854 151.832 114.64 152.089 114.306 152.156ZM120.095 148.665C120.488 148.364 120.702 147.936 120.702 147.398V147.082C120.702 146.219 120.146 145.767 119.282 145.942L117.846 146.231V152.21L119.359 151.905C120.223 151.731 120.779 151.055 120.779 150.192V149.705C120.779 149.133 120.531 148.782 120.095 148.665ZM119.239 146.804C119.59 146.734 119.796 146.897 119.796 147.247V147.675C119.796 148.11 119.59 148.357 119.154 148.445L118.752 148.526V146.903L119.239 146.804ZM119.872 150.392C119.872 150.742 119.667 150.989 119.316 151.06L118.752 151.173V149.38L119.231 149.283C119.667 149.195 119.872 149.359 119.872 149.794V150.392ZM124.729 150.822L125.652 150.635L124.66 144.856L123.445 145.101L122.453 151.281L123.36 151.098L123.556 149.734L124.531 149.537L124.728 150.822H124.729ZM123.676 148.839L124.044 146.262L124.412 148.691L123.676 148.839ZM127.523 150.258L130.046 149.749V148.895L128.429 149.221V144.096L127.523 144.279V150.258ZM133.628 149.027L134.534 148.844V146.418L135.048 146.314C135.911 146.14 136.467 145.464 136.467 144.601V143.901C136.467 143.038 135.911 142.586 135.048 142.761L133.628 143.047V149.027H133.628ZM134.534 145.564V143.719L135.005 143.624C135.355 143.553 135.561 143.717 135.561 144.067V144.801C135.561 145.151 135.356 145.398 135.005 145.469L134.534 145.563V145.564ZM139.775 147.872C140.647 147.696 141.229 146.997 141.229 146.135V142.872C141.229 142.009 140.647 141.546 139.775 141.722C138.903 141.898 138.321 142.596 138.321 143.459V146.722C138.321 147.584 138.903 148.048 139.775 147.872V147.872ZM139.775 147.018C139.442 147.085 139.228 146.914 139.228 146.538V143.275C139.228 142.899 139.442 142.643 139.775 142.576C140.109 142.508 140.322 142.679 140.322 143.054V146.317C140.322 146.693 140.108 146.95 139.775 147.018ZM143.314 147.072L145.837 146.563V145.709L144.221 146.035V140.91L143.314 141.093V147.072ZM147.709 146.186L148.615 146.003V140.024L147.709 140.206V146.186ZM150.486 140.5L151.479 140.3V145.425L152.385 145.242V140.117L153.377 139.917V139.062L150.486 139.646V140.5V140.5ZM155.248 144.665L156.154 144.482V138.502L155.248 138.686V144.665ZM159.659 143.86C160.506 143.689 161.079 142.993 161.079 142.155V141.301L160.189 141.48V142.335C160.189 142.685 159.975 142.942 159.668 143.004C159.36 143.066 159.146 142.896 159.146 142.545V139.231C159.146 138.881 159.36 138.625 159.668 138.562C159.975 138.5 160.189 138.67 160.189 139.02V139.721L161.079 139.542V138.841C161.079 138.004 160.506 137.539 159.659 137.71C158.812 137.881 158.24 138.577 158.24 139.414V142.728C158.24 143.565 158.813 144.03 159.659 143.86ZM165.062 142.684L165.986 142.498L164.993 136.719L163.779 136.964L162.787 143.143L163.693 142.96L163.89 141.596L164.865 141.4L165.062 142.684H165.062ZM164.01 140.701L164.378 138.124L164.745 140.553L164.01 140.701ZM167.857 142.12L170.379 141.611V140.757L168.763 141.083V135.958L167.857 136.141V142.12ZM173.961 140.889L174.868 140.705V138.279L175.381 138.176C176.245 138.001 176.801 137.325 176.801 136.463V135.762C176.801 134.9 176.245 134.448 175.381 134.622L173.962 134.909V140.888L173.961 140.889ZM174.868 137.426V135.581L175.338 135.486C175.689 135.415 175.895 135.579 175.895 135.929V136.663C175.895 137.013 175.689 137.26 175.338 137.331L174.868 137.425V137.426ZM178.732 139.926L181.255 139.417V138.563L179.638 138.889V133.764L178.732 133.947V139.926ZM185.196 138.622L186.119 138.435L185.127 132.656L183.913 132.901L182.92 139.081L183.827 138.898L184.024 137.534L184.999 137.338L185.195 138.622L185.196 138.622ZM184.144 136.639L184.511 134.062L184.879 136.49L184.144 136.639ZM187.34 133.064L188.333 132.863V137.988L189.239 137.805V132.68L190.231 132.48V131.625L187.34 132.209V133.063V133.064ZM192.102 137.228L193.008 137.045V134.525L194.291 134.266V133.412L193.008 133.671V131.919L194.634 131.592V130.737L192.102 131.248V137.227V137.228ZM197.881 136.147C198.754 135.971 199.336 135.273 199.336 134.41V131.147C199.336 130.285 198.754 129.821 197.881 129.997C197.009 130.173 196.428 130.871 196.428 131.734V134.997C196.428 135.859 197.009 136.323 197.881 136.147V136.147ZM197.881 135.293C197.548 135.361 197.334 135.19 197.334 134.814V131.551C197.334 131.175 197.548 130.919 197.881 130.851C198.215 130.784 198.429 130.955 198.429 131.331V134.593C198.429 134.969 198.215 135.226 197.881 135.293ZM204.397 134.747L203.636 132.227C204.029 131.909 204.26 131.435 204.26 130.88V130.222C204.26 129.36 203.704 128.908 202.84 129.082L201.421 129.369V135.348L202.327 135.165V132.697L202.798 132.602L203.457 134.938L204.397 134.748L204.397 134.747ZM202.327 130.04L202.797 129.945C203.148 129.874 203.354 130.038 203.354 130.388V131.08C203.354 131.43 203.148 131.677 202.797 131.748L202.327 131.842V130.04ZM209.133 127.812L208.38 131.782L207.593 128.123L206.31 128.382V134.361L207.2 134.181V130.081L208.047 134.01L208.68 133.883L209.526 129.612V133.712L210.433 133.529V127.55L209.133 127.812Z" fill="white"/>
<path fill-rule="evenodd" clip-rule="evenodd" d="M2.85327 98.414C2.85327 94.6078 5.53502 91.3285 9.26554 90.5731L200.374 51.8747C205.33 50.8713 209.962 54.6594 209.962 59.7156V115.25C209.962 119.056 207.28 122.335 203.55 123.09L96.9125 144.684C91.9569 145.687 87.3248 141.899 87.3248 136.843V94.2444L92.1159 93.2745V88.4341L77.5236 91.3887V96.2291L82.3151 95.2591C82.3151 118.195 82.3151 141.131 82.3151 164.067C75.6007 153.855 70.7849 149.975 59.2394 152.313L12.441 161.789C7.48535 162.792 2.85327 159.004 2.85327 153.948L2.85327 98.414ZM184.83 69.6601L177.642 113.698L182.489 112.716L183.414 106.384L191.365 104.774L192.344 110.721L197.19 109.739L189.786 68.6564L184.83 69.6601ZM187.335 80.0839L190.711 100.718L184.068 102.063L187.335 80.0839ZM157.376 75.2193V117.802L162.277 116.809V96.9593L165.979 96.2096C168.973 95.6031 169.845 96.4603 169.845 99.1252V115.277L174.8 114.273V98.2847C174.8 94.8043 173.602 93.1979 171.479 92.7578C173.44 91.491 174.474 89.4868 174.474 86.115V80.1871C174.474 74.9115 171.262 72.4078 166.034 73.4663L157.376 75.2193ZM162.277 78.9584L165.653 78.2748C168.212 77.7567 169.574 79.0041 169.574 81.7775V87.3247C169.574 90.0981 168.593 91.384 165.653 91.9796L162.277 92.6636V78.9584ZM137.984 79.1463V83.9867L142.775 83.0162V120.759L147.785 119.744V82.002L152.576 81.032V76.1916L137.984 79.1463ZM100.33 86.771L93.1419 130.809L97.9882 129.828L98.9137 123.495L106.864 121.885L107.844 127.832L112.69 126.851L105.286 85.7677L100.33 86.771ZM102.834 97.1953L106.21 117.829L99.5671 119.175L102.834 97.1953ZM55.6072 95.8271V138.41L59.9629 137.528V106.203L68.1848 135.863L72.6501 134.959V92.3763L68.2938 93.2583V122.625L61.0517 94.7249L55.6072 95.8271ZM37.002 99.5948V142.177L51.1047 139.321V134.481L42.0117 136.323V121.639L48.437 120.338V115.498L42.0117 116.799V103.42L51.1047 101.578V96.7381L37.002 99.5948ZM20.4706 110.719C20.4706 108.272 21.9948 106.713 24.2819 106.25C26.4601 105.809 27.9299 106.761 27.9299 109.209V110.514L32.5581 109.577V108.163C32.5581 102.942 29.2364 100.406 24.2267 101.421C19.2179 102.435 15.6243 106.371 15.6243 111.592V138.837C15.6243 144.058 18.8364 146.617 23.1927 145.735C25.697 145.227 27.7122 143.732 29.073 141.933L29.2917 143.738L32.3947 143.11V119.507L23.7914 121.249V125.763L28.039 124.903V136.215C28.039 138.662 26.2962 140.266 24.1181 140.707C21.94 141.148 20.4706 140.194 20.4706 137.747V110.719ZM117.144 83.3663V125.949L121.499 125.067V93.7416L129.722 123.402L134.186 122.498V79.9155L129.83 80.7975V110.165L122.589 82.2641L117.144 83.3663Z" fill="white"/>
</svg>
