<svg width="42" height="54" viewBox="0 0 42 54" fill="none" xmlns="http://www.w3.org/2000/svg">
<path fill-rule="evenodd" clip-rule="evenodd" d="M0 11.2937C0 9.53192 1.24467 8.01557 2.97264 7.67218L37.1685 0.876698C39.452 0.422912 41.5804 2.17002 41.5804 4.49819V38.197C41.5804 39.9557 40.34 41.4703 38.6158 41.8169L32.0909 43.1285C30.3766 43.4731 28.7759 42.1622 28.7759 40.4136V13.7471L31.5209 13.1906V10.4141L23.1605 12.1091V14.8856L25.9058 14.3291C25.9058 27.486 25.9058 40.6429 25.9058 53.7998C22.059 47.942 19.2996 45.7159 12.6849 47.0572L4.386 48.6446C2.10989 49.08 0 47.3355 0 45.0181L0 11.2937ZM13.1875 18.7063C13.1875 17.3023 14.0607 16.4082 15.3711 16.1427C16.6189 15.8896 17.4612 16.4362 17.4612 17.8402V18.5887L20.113 18.0511V17.2403C20.113 14.2455 18.2097 12.7907 15.3396 13.3726C12.4699 13.9545 10.4109 16.2124 10.4109 19.2072V34.8365C10.4109 37.8313 12.2512 39.2993 14.7471 38.7929C16.1819 38.502 17.3365 37.6442 18.1161 36.6122L18.2412 37.6477L20.0191 37.2873V23.7478L15.0901 24.7471V27.3365L17.5236 26.8433V33.3322C17.5236 34.7359 16.525 35.656 15.2772 35.909C14.0291 36.1621 13.1875 35.6149 13.1875 34.2112V18.7063Z" fill="white"/>
</svg>
